<?xml version="1.0" encoding="utf-8"?>
<svg version="1.0" xmlns="http://www.w3.org/2000/svg" width="512.000000pt" height="512.000000pt" viewBox="37.197 27.35 438.7 456.206" preserveAspectRatio="xMidYMid meet">
  <g transform="translate(0.000000,512.000000) scale(0.100000,-0.100000)" fill="#000000" stroke="none">
    <path d="M1624 4829 c-18 -5 -53 -24 -80 -41 -208 -140 -183 -448 46 -557 46 -22 68 -26 135 -25 127 1 221 57 280 165 38 70 46 180 20 260 -24 72 -119 168 -189 192 -53 18 -160 21 -212 6z"/>
    <path d="M2607 4455 c-108 -38 -157 -162 -104 -265 23 -47 85 -97 127 -102 22 -3 33 12 108 145 57 100 81 153 77 166 -8 25 -100 71 -139 71 -17 -1 -48 -7 -69 -15z"/>
    <path d="M2861 4166 c-23 -40 -41 -76 -41 -79 0 -3 47 -28 105 -56 58 -27 105 -55 105 -62 0 -7 -5 -40 -11 -73 l-11 -61 -178 -149 c-97 -82 -185 -153 -194 -158 -37 -21 -78 7 -330 222 -141 121 -279 231 -308 246 -28 14 -94 38 -147 52 -88 23 -113 26 -296 26 -166 1 -212 -2 -270 -18 -147 -39 -162 -50 -398 -284 -197 -195 -223 -224 -252 -287 -56 -120 -255 -773 -255 -837 0 -62 80 -127 156 -128 45 0 95 38 126 95 14 28 60 144 102 258 109 302 105 295 276 437 79 66 148 120 152 120 4 0 8 -161 8 -357 l0 -357 -66 -570 c-49 -428 -71 -587 -87 -636 -16 -47 -99 -183 -301 -494 -153 -235 -284 -443 -292 -462 -39 -92 6 -201 101 -245 76 -35 169 -15 226 47 22 24 624 949 687 1054 33 56 58 143 92 323 18 92 36 167 40 167 11 0 169 -150 180 -171 6 -10 71 -307 145 -659 92 -437 142 -656 158 -688 27 -54 77 -92 121 -92 85 0 167 52 187 118 9 32 -6 146 -101 771 l-111 734 -99 281 c-54 155 -103 294 -109 309 -15 38 -15 897 -1 897 6 0 115 -66 243 -147 280 -178 333 -200 426 -173 62 17 104 57 291 274 102 118 188 215 193 215 4 1 7 -605 7 -1346 l0 -1347 -190 -252 c-200 -264 -213 -290 -172 -327 27 -24 74 -21 99 5 12 13 89 113 173 223 83 110 156 200 162 200 6 0 86 -99 177 -220 171 -225 181 -235 236 -221 31 8 51 57 34 88 -6 12 -95 132 -196 265 l-183 243 0 1435 0 1434 32 38 c18 21 33 39 34 41 1 2 75 -31 164 -74 174 -84 185 -85 205 -29 12 35 1 44 -180 149 -74 43 -135 81 -135 84 1 4 7 18 15 32 20 36 18 77 -6 116 -28 46 -40 51 -146 59 -84 7 -94 6 -122 -14 l-30 -22 -97 56 c-52 30 -97 55 -99 55 -2 0 -22 -33 -44 -74z"/>
    <path d="M4247 3892 c-15 -17 -17 -55 -17 -344 0 -178 -3 -327 -6 -331 -3 -3 -24 1 -46 9 -141 50 -312 -38 -354 -181 -29 -103 -4 -204 70 -278 49 -49 101 -71 182 -75 89 -5 156 21 213 83 77 84 75 70 79 533 2 226 6 412 9 412 3 0 56 -27 118 -60 62 -33 120 -60 129 -60 25 0 66 46 66 73 0 35 -29 57 -206 151 -168 89 -207 101 -237 68z"/>
    <path d="M3944 2289 c-18 -20 -19 -43 -22 -331 l-3 -310 -22 7 c-46 15 -139 17 -182 5 -55 -15 -128 -78 -157 -133 -29 -59 -35 -155 -13 -214 55 -144 223 -213 360 -149 60 27 131 103 145 155 6 21 10 191 10 413 0 232 4 379 10 383 5 3 125 -57 267 -133 l258 -139 3 -280 2 -281 -46 14 c-60 18 -98 18 -160 -1 -152 -45 -230 -229 -158 -373 66 -132 222 -184 357 -119 61 30 112 85 133 145 10 28 13 144 14 499 0 445 -1 463 -19 480 -38 35 -701 383 -730 383 -16 0 -36 -9 -47 -21z"/>
  </g>
</svg>