<?xml version="1.0" encoding="utf-8"?>
<svg version="1.0" xmlns="http://www.w3.org/2000/svg" width="512.000000pt" height="512.000000pt" viewBox="40.479 60.171 429.948 390.564" preserveAspectRatio="xMidYMid meet">
  <g transform="translate(0.000000,512.000000) scale(0.100000,-0.100000)" fill="#000000" stroke="none">
    <path d="M2852 4479 c-51 -26 -95 -76 -111 -128 -7 -26 -11 -164 -11 -423 l0 -385 -112 -7 c-1138 -68 -2055 -944 -2178 -2078 -5 -54 -10 -226 -10 -383 0 -236 3 -292 16 -323 45 -110 173 -161 280 -113 47 21 83 63 195 221 273 387 600 705 919 894 267 159 492 231 752 243 l137 6 3 -424 3 -424 28 -47 c49 -84 145 -122 240 -94 50 15 88 51 854 818 440 442 808 817 817 835 22 44 20 128 -4 177 -13 28 -280 301 -817 837 -691 689 -804 797 -839 807 -61 18 -114 15 -162 -9z"/>
  </g>
</svg>