<?xml version="1.0" encoding="utf-8"?>
<svg version="1.0" xmlns="http://www.w3.org/2000/svg" width="512.000000pt" height="512.000000pt" viewBox="42.667 24.068 425.572 462.77" preserveAspectRatio="xMidYMid meet">
  <g transform="translate(0.000000,512.000000) scale(0.100000,-0.100000)" fill="#000000" stroke="none">
    <path d="M2529 4215 c-525 -355 -961 -652 -969 -661 -13 -13 -15 -167 -18 -1243 l-2 -1229 -66 44 c-263 176 -622 52 -716 -249 -27 -85 -26 -212 2 -291 54 -157 176 -269 337 -311 227 -59 470 68 560 295 17 42 18 117 23 1059 l5 1014 869 588 c478 324 873 586 877 583 12 -7 12 -1634 0 -1634 -5 0 -32 15 -60 34 -226 153 -524 92 -672 -136 -52 -82 -72 -164 -67 -280 3 -83 8 -103 41 -171 91 -193 296 -303 500 -269 181 31 315 145 379 322 l23 65 0 1538 0 1539 -24 19 c-13 10 -33 19 -46 19 -13 0 -420 -270 -976 -645z"/>
    <path d="M822 3650 l-22 -21 0 -929 c0 -917 0 -930 20 -950 29 -29 74 -26 99 6 21 27 21 31 21 946 l0 919 -25 24 c-29 30 -64 32 -93 5z"/>
    <path d="M4205 3645 l-25 -24 0 -919 c0 -915 0 -919 21 -946 25 -32 70 -35 99 -6 20 20 20 33 20 950 l0 929 -22 21 c-29 27 -64 25 -93 -5z"/>
    <path d="M492 3100 c-12 -5 -27 -22 -33 -36 -6 -17 -9 -157 -7 -381 l3 -355 24 -19 c30 -25 62 -24 89 1 22 21 22 23 22 390 l0 369 -26 20 c-29 23 -38 24 -72 11z"/>
    <path d="M1182 3100 c-12 -5 -27 -21 -32 -35 -6 -16 -10 -171 -10 -376 l0 -350 25 -24 c30 -30 54 -31 89 -4 l26 20 0 369 0 369 -26 20 c-29 23 -38 24 -72 11z"/>
    <path d="M3867 3090 l-27 -21 0 -368 0 -368 23 -21 c31 -29 62 -28 93 3 l25 25 -3 365 c-3 395 -2 386 -58 400 -18 4 -34 0 -53 -15z"/>
    <path d="M4557 3090 l-27 -21 0 -369 c0 -367 0 -369 22 -390 27 -25 59 -26 89 -1 l24 19 0 371 c0 402 1 392 -55 406 -18 4 -34 0 -53 -15z"/>
  </g>
</svg>